<?xml version="1.0" standalone="no"?>
<!DOCTYPE svg PUBLIC "-//W3C//DTD SVG 20010904//EN"
 "http://www.w3.org/TR/2001/REC-SVG-20010904/DTD/svg10.dtd">
<svg version="1.0" xmlns="http://www.w3.org/2000/svg"
 width="128.000000pt" height="128.000000pt" viewBox="0 0 128.000000 128.000000"
 preserveAspectRatio="xMidYMid meet">
<metadata>
Created by potrace 1.14, written by Peter Selinger 2001-2017
</metadata>
<g transform="translate(0.000000,128.000000) scale(0.100000,-0.100000)"
fill="#000000" stroke="none">
<path d="M111 1204 c-72 -15 -111 -37 -111 -62 0 -38 32 -138 62 -194 29 -54
81 -112 123 -135 16 -9 16 -12 -3 -50 -12 -22 -32 -80 -46 -129 -33 -117 -33
-263 1 -336 68 -148 241 -229 493 -230 268 -1 443 78 513 232 34 75 35 204 3
322 -14 54 -35 116 -47 139 -20 39 -20 43 -4 52 76 42 150 159 174 274 17 76
10 87 -63 108 -162 47 -299 9 -379 -106 -14 -20 -19 -21 -64 -11 -81 19 -142
20 -220 5 -74 -14 -76 -14 -92 8 -9 13 -18 26 -21 29 -3 4 -26 23 -52 42 -66
50 -158 65 -267 42z m221 -100 c23 -16 47 -38 55 -50 12 -19 9 -24 -35 -59
-27 -22 -64 -58 -82 -82 -33 -41 -35 -41 -59 -27 -40 24 -87 93 -110 161 -12
34 -21 65 -21 67 0 14 72 25 138 22 62 -3 80 -8 114 -32z m851 21 c23 -9 18
-35 -23 -120 -32 -66 -52 -93 -91 -118 -25 -17 -26 -17 -60 25 -31 39 -52 60
-110 107 l-21 17 26 31 c44 53 98 73 185 69 42 -2 84 -7 94 -11z m-391 -137
c98 -45 195 -153 245 -273 115 -278 62 -467 -153 -540 -74 -25 -118 -30 -254
-30 -183 1 -291 34 -372 113 -82 78 -96 220 -39 390 62 185 176 315 316 358
67 21 191 12 257 -18z"/>
<path d="M877 698 c-22 -12 -22 -57 -1 -65 22 -8 48 9 52 33 3 25 -29 45 -51
32z"/>
<path d="M353 684 c-9 -24 10 -49 38 -49 20 0 24 5 24 30 0 25 -4 30 -28 33
-18 2 -29 -2 -34 -14z"/>
<path d="M553 579 c-82 -40 -123 -101 -123 -184 0 -57 19 -96 65 -130 109 -84
283 -55 341 57 18 35 18 109 0 152 -30 71 -121 127 -205 126 -20 -1 -55 -10
-78 -21z m169 -85 c26 -17 41 -35 49 -63 17 -56 -1 -94 -55 -121 -53 -25 -98
-25 -151 0 -61 30 -80 82 -51 139 19 36 37 50 83 66 45 16 75 11 125 -21z"/>
<path d="M557 439 c-37 -21 -8 -77 33 -64 13 4 20 15 20 30 0 29 -28 47 -53
34z"/>
<path d="M687 439 c-24 -14 -22 -56 3 -64 25 -8 50 10 50 36 0 24 -30 40 -53
28z"/>
</g>
</svg>
